/* XPM */
static char * font_v_xpm[] = {
"3 50 2 1",
" 	c #000000",
"X	c #FFFFFF",
"XXX",
"X X",
"X X",
"X X",
"XXX",
" XX",
"  X",
"  X",
"  X",
"  X",
"XXX",
"  X",
"XXX",
"X  ",
"XXX",
"XXX",
"  X",
" XX",
"  X",
"XXX",
"X X",
"X X",
"XXX",
"  X",
"  X",
"XXX",
"X  ",
"XXX",
"  X",
"XXX",
"XXX",
"X  ",
"XXX",
"X X",
"XXX",
"XXX",
"  X",
" X ",
"X  ",
"X  ",
"XXX",
"X X",
"XXX",
"X X",
"XXX",
"XXX",
"X X",
"XXX",
"  X",
"XXX"
};
