/* XPM */
static const char *opponent2[] = {
/* columns rows colors chars-per-pixel */
"8 16 3 1 ",
"  c #9F21C0",
". c white",
"X c None",
/* pixels */
"XXXXX   ",
"XXX     ",
"XX     .",
"X      .",
"X    ...",
"    .  .",
"    .   ",
"  ....  ",
"  ....  ",
"    .   ",
"    .  .",
"X    ...",
"X      .",
"XX     .",
"XXX     ",
"XXXXX   "
};
