/* XPM */
static const char *ring[] = {
/* columns rows colors chars-per-pixel */
"16 16 2 1 ",
"  c #F2A65E",
". c None",
/* pixels */
"......    ......",
"....        ....",
"...   ....   ...",
"..   ......   ..",
"..  ........  ..",
".  ..........  .",
".  ..........  .",
"  ............  ",
"  ............  ",
"  ............  ",
"  ............  ",
".  ..........  .",
".   ........   .",
"..    ....    ..",
"....        ....",
"......    ......"
};
